<svg version="1.1" id="Layer_1" xmlns="http://www.w3.org/2000/svg" xmlns:xlink="http://www.w3.org/1999/xlink" x="0px" y="0px"
	 width="100%" viewBox="0 0 840 660" enable-background="new 0 0 840 660" xml:space="preserve">
<path fill="#FEFDFE" opacity="1.000000" stroke="none" 
	d="
M1.000000,588.000000 
	C1.000000,584.637146 1.000000,581.274231 1.445361,577.584717 
	C11.626771,576.663635 21.362820,576.069336 31.178129,575.470154 
	C31.178129,525.855713 31.178129,476.476013 31.178129,426.883606 
	C20.888865,426.241394 10.944432,425.620697 1.000000,425.000000 
	C1.000000,283.666656 1.000000,142.333328 1.000000,1.000000 
	C281.000000,1.000000 561.000000,1.000000 841.000000,1.000000 
	C841.000000,221.000000 841.000000,441.000000 841.000000,661.000000 
	C562.500000,661.000000 284.000000,661.001648 5.500007,660.958801 
	C3.999954,660.958557 2.499999,660.333313 1.444638,659.335571 
	C4.054737,658.643433 6.220196,658.591553 8.385656,658.591553 
	C283.023102,658.587158 557.660522,658.586487 832.297974,658.585754 
	C834.421814,658.585754 836.545654,658.585754 838.716309,658.585754 
	C838.716309,634.631714 838.716309,611.248413 838.716309,587.569824 
	C836.660889,587.569824 835.004333,587.569824 833.347778,587.569824 
	C557.710449,587.574280 282.073120,587.577942 6.435790,587.600403 
	C4.623848,587.600586 2.811929,587.861084 1.000000,588.000000 
M120.925301,508.223236 
	C141.107849,499.083069 150.399109,479.702515 144.581955,458.878174 
	C141.117645,446.476624 128.240768,433.538116 120.145226,434.531525 
	C130.876038,448.534882 134.790558,464.205078 132.198639,481.573059 
	C130.701614,491.604431 125.682251,499.931061 119.492134,508.071075 
	C119.537338,508.306213 119.582542,508.541321 119.627731,508.776459 
	C119.818314,508.576447 120.008896,508.376434 120.925301,508.223236 
M804.007019,432.719269 
	C803.884766,432.739288 803.762573,432.759277 803.640320,432.779236 
	C803.767090,432.851501 803.893799,432.923798 804.123413,433.675720 
	C813.044067,444.471863 817.496216,456.945160 817.698059,470.876373 
	C817.899536,484.779144 813.698792,497.207825 803.275940,508.781708 
	C806.013184,507.799072 807.431946,507.469177 808.680481,506.814545 
	C826.047363,497.708557 834.421265,479.711578 829.718872,460.642273 
	C826.306580,446.804901 817.849182,437.286469 804.007019,432.719269 
M700.221863,125.290787 
	C603.220093,33.737061 488.220215,-4.364869 356.296326,13.608587 
	C248.069534,28.353519 160.029312,80.928780 92.317368,166.492661 
	C40.859329,231.517380 12.782555,306.084961 6.388052,388.734528 
	C5.637784,398.431824 6.286174,408.237335 6.286174,418.284454 
	C8.307541,418.124847 9.890494,417.999878 11.442634,417.877319 
	C10.397944,280.278564 121.287560,157.787979 266.956390,151.337524 
	C334.068787,148.365677 394.569183,167.610184 446.724396,209.984344 
	C512.416809,263.356964 545.105957,333.421387 547.529419,417.847900 
	C639.786255,417.847900 731.821045,417.847900 824.136597,417.847900 
	C824.136597,416.348236 824.153564,415.200623 824.134155,414.053589 
	C822.948486,344.054962 805.635620,278.376923 771.216248,217.335175 
	C752.112793,183.455719 728.638184,152.901184 700.221863,125.290787 
M298.806854,163.655029 
	C285.681000,163.374756 272.533508,162.477005 259.433563,162.936218 
	C227.074326,164.070572 196.088104,171.723877 166.881363,185.583176 
	C95.729652,219.346375 49.053516,274.298492 26.655014,349.764923 
	C20.558969,370.304108 17.946117,391.460480 17.285118,412.842987 
	C17.232018,414.560760 18.524036,416.320129 19.190985,418.060150 
	C19.902151,416.509125 21.050159,415.012054 21.249403,413.397827 
	C22.146313,406.131378 22.311773,398.750916 23.568857,391.556244 
	C39.960419,297.742310 127.279564,236.942993 220.719666,254.151657 
	C286.383636,266.244843 340.495544,319.851715 353.066833,385.612305 
	C355.087250,396.181305 355.962067,406.969299 357.375824,417.727417 
	C414.777069,417.727417 472.305786,417.727417 531.142212,417.727417 
	C529.247009,401.801453 528.330200,386.291534 525.437744,371.159302 
	C513.658386,309.532654 483.187958,258.732880 434.520477,219.193130 
	C395.236664,187.277069 350.192749,168.757858 298.806854,163.655029 
M342.093903,378.472473 
	C322.955109,313.816803 280.732727,272.697937 214.408569,260.742706 
	C149.994095,249.131714 96.605576,271.597992 56.605885,323.483917 
	C35.366417,351.034851 25.649864,382.947021 26.357784,417.945648 
	C28.759577,386.008057 41.026154,358.831787 65.717072,338.206512 
	C90.812714,317.243195 120.324745,308.769409 152.128387,315.684540 
	C206.207733,327.443085 233.561722,363.508240 238.956345,417.696533 
	C274.810608,417.696533 310.831512,417.696533 348.400085,417.696533 
	C346.292358,404.454346 344.288788,391.866669 342.093903,378.472473 
M726.503662,517.499939 
	C726.503662,536.891785 726.503662,556.283630 726.503662,576.499756 
	C738.278748,576.499756 749.153198,576.499756 760.027710,576.499756 
	C759.586060,575.399109 758.969238,574.912476 758.280579,574.767822 
	C745.924072,572.171143 740.582703,563.345642 739.320679,551.949951 
	C738.206726,541.891052 738.385742,531.687073 738.049622,521.545288 
	C737.948425,518.491943 738.033997,515.432434 738.033997,512.468933 
	C743.830688,513.544373 748.845154,514.694275 753.922241,515.380127 
	C781.814697,519.148254 810.851685,502.178436 807.133484,464.902100 
	C804.981934,443.332550 791.637939,428.140594 770.269165,426.055328 
	C755.994812,424.662354 741.474426,425.790649 726.504211,425.790649 
	C726.504211,456.961243 726.504211,486.730560 726.503662,517.499939 
M59.543140,565.833862 
	C58.005291,561.998230 55.469978,558.253662 55.109730,554.310425 
	C53.842590,540.440308 53.322750,526.501892 52.504162,512.326782 
	C58.924664,513.531250 64.240135,514.776489 69.625793,515.497192 
	C97.945374,519.287170 120.419075,502.016174 122.571182,474.942413 
	C124.802162,446.876495 107.774826,426.429626 80.171234,425.235107 
	C67.618011,424.691864 54.982792,426.043549 42.153122,426.544739 
	C42.153122,476.587219 42.153122,525.973083 42.153122,575.560486 
	C53.319431,576.067810 64.219093,576.563049 75.265396,577.064941 
	C69.871399,573.320435 64.914406,569.879211 59.543140,565.833862 
M599.487549,496.586578 
	C590.868042,496.586578 582.248474,496.586578 572.412598,496.586578 
	C573.113342,477.364075 573.706482,458.776489 574.657532,440.207245 
	C574.721069,438.966522 577.458069,436.914764 579.017151,436.851410 
	C589.653564,436.419006 600.308228,436.278900 610.955627,436.328766 
	C617.728760,436.360474 624.087097,438.342499 627.898376,444.268555 
	C630.545776,448.384918 631.992310,453.276459 633.946594,457.833984 
	C634.524048,459.180756 635.004028,460.569366 635.528687,461.938782 
	C636.016235,461.839447 636.503845,461.740143 636.991455,461.640808 
	C636.991455,449.591736 636.991455,437.542664 636.991455,426.120300 
	C611.562927,426.120300 586.694946,426.120300 561.636230,426.120300 
	C561.636230,476.614166 561.636230,526.018127 561.636230,575.599243 
	C572.069763,576.175232 582.220337,576.735535 593.488831,577.357605 
	C592.241638,575.700623 592.033752,575.106140 591.674805,574.993652 
	C579.297546,571.115295 574.826904,561.298218 573.907959,549.744690 
	C572.972412,537.982544 573.266907,526.122070 573.044312,514.304199 
	C572.995483,511.710083 573.037170,509.114288 573.037170,506.364624 
	C586.243774,506.364624 598.752441,505.642609 611.137573,506.569946 
	C623.257385,507.477417 628.338806,513.321899 630.188660,525.296265 
	C630.239380,525.624329 630.118042,526.043640 630.281433,526.277771 
	C630.784424,526.998535 631.386841,527.649902 631.950562,528.328308 
	C632.530518,527.670288 633.377563,527.097229 633.621216,526.332153 
	C633.909668,525.426453 633.675232,524.354980 633.671570,523.355408 
	C633.619690,509.044281 633.572998,494.733124 633.496094,480.422150 
	C633.493774,479.991241 633.179749,479.562042 632.569214,478.006073 
	C631.316589,479.639526 630.149963,480.578583 629.752808,481.773407 
	C627.246704,489.314026 622.042908,493.729492 614.343750,495.053314 
	C609.769897,495.839752 605.104675,496.095184 599.487549,496.586578 
M404.609009,489.869019 
	C416.400665,494.379822 428.576935,498.100342 439.885468,503.603882 
	C453.646820,510.301178 462.038452,521.729370 462.393982,537.590271 
	C462.535706,543.914856 461.202393,550.272644 460.586731,556.172974 
	C465.478943,552.066040 468.747833,546.075195 470.166168,539.037781 
	C473.816406,520.926147 465.318268,502.690582 448.511292,494.930328 
	C436.312958,489.297974 423.383209,485.271515 410.960754,480.094299 
	C403.783600,477.103088 396.405060,474.042938 390.117401,469.598633 
	C380.598297,462.870361 380.826752,450.828979 390.021790,443.631561 
	C393.229279,441.120911 397.031128,438.915131 400.914581,437.803009 
	C415.908447,433.509003 430.579254,434.829651 444.527496,441.975861 
	C453.301178,446.470947 458.424377,453.637634 459.410919,463.608887 
	C459.553589,465.050659 460.177460,466.444824 460.578644,467.861053 
	C461.105865,467.835663 461.633057,467.810272 462.160248,467.784912 
	C462.412567,466.490417 462.903290,465.191589 462.879730,463.902130 
	C462.685181,453.245361 462.516663,442.584106 461.975983,431.942749 
	C461.910797,430.659790 459.859711,428.730042 458.418121,428.379730 
	C443.133850,424.665497 427.627289,422.640198 411.880554,423.998322 
	C400.953827,424.940704 390.691864,427.797882 381.930542,435.049438 
	C369.458435,445.372406 366.725250,473.807953 386.953857,482.275299 
	C392.623627,484.648529 398.237305,487.155701 404.609009,489.869019 
M248.808517,424.011108 
	C238.282104,425.370300 228.345993,428.035339 219.846710,435.002014 
	C207.449158,445.164062 204.405029,473.803497 225.235092,482.503143 
	C229.375183,484.232269 233.382645,486.290833 237.562256,487.911163 
	C250.730301,493.016174 264.202576,497.421753 277.078247,503.170563 
	C289.079865,508.529114 297.021912,518.158325 299.709534,531.285400 
	C301.444305,539.758667 300.907471,548.279175 296.914307,557.549194 
	C298.438690,556.225525 298.959076,555.836914 299.405701,555.376770 
	C315.827698,538.458923 310.335999,508.172516 288.512177,495.908264 
	C284.469208,493.636230 280.140320,491.819702 275.819489,490.105255 
	C262.230133,484.712982 248.476120,479.721527 234.996445,474.072418 
	C227.104721,470.765137 220.832733,465.398682 221.329376,455.745575 
	C221.822723,446.156494 228.951324,441.951843 236.581314,438.412292 
	C237.330460,438.064758 238.141586,437.830627 238.944183,437.621613 
	C254.390350,433.598267 269.281616,434.900482 283.413269,442.529907 
	C291.796387,447.055878 296.387848,454.200928 297.363922,463.702759 
	C297.509155,465.116638 298.100739,466.484680 298.485809,467.873932 
	C299.112427,467.794891 299.739044,467.715851 300.365662,467.636810 
	C301.937012,454.923889 299.822968,442.188690 299.985016,429.362488 
	C283.255890,424.746429 266.665802,422.853851 248.808517,424.011108 
M272.499359,573.075928 
	C274.841064,571.217590 277.364746,569.546082 279.495056,567.470825 
	C293.844177,553.492615 297.456635,525.146057 271.961426,512.567444 
	C267.191345,510.214020 262.390961,507.858337 257.424805,505.978821 
	C245.766220,501.566467 233.741486,498.030853 222.340622,493.051331 
	C208.074890,486.820526 200.883240,475.178284 200.230179,459.575348 
	C200.158875,457.871887 199.979309,456.172974 199.775055,453.486938 
	C198.807800,454.908875 198.394745,455.382385 198.128098,455.927490 
	C189.755859,473.042145 196.012650,492.434265 213.357071,501.541382 
	C219.944321,505.000183 227.168793,507.252197 234.122360,510.004913 
	C244.932388,514.284302 255.858765,518.289185 266.539154,522.869019 
	C272.391022,525.378296 276.592621,529.846497 278.257507,536.343445 
	C281.712158,549.824768 273.578827,563.012695 259.337463,566.862854 
	C234.985733,573.446411 208.909760,556.484802 204.354691,531.185669 
	C204.077957,529.648743 202.983307,528.259033 202.269211,526.800842 
	C201.583694,528.424927 200.277786,530.061768 200.310989,531.671021 
	C200.571899,544.323608 201.006409,556.975159 201.665634,569.612549 
	C201.725983,570.769409 203.586258,572.564270 204.852951,572.808960 
	C213.834061,574.543701 222.872116,575.989929 231.903992,577.454285 
	C245.571396,579.670227 259.099457,580.343567 272.499359,573.075928 
M403.851135,578.789490 
	C407.514587,578.802673 411.190308,579.017151 414.839447,578.795044 
	C433.206543,577.677368 446.896118,567.094238 451.433167,550.652710 
	C455.435120,536.150330 450.792664,523.022034 438.104401,515.100342 
	C432.219360,511.426178 425.779266,508.490906 419.307312,505.939819 
	C407.714325,501.370087 395.749420,497.726318 384.235809,492.978119 
	C373.828735,488.686218 366.961792,480.590118 363.923279,469.696228 
	C362.558807,464.804291 362.088409,459.663025 361.188538,454.498444 
	C360.851318,455.015106 360.455750,455.504974 360.183258,456.055695 
	C351.811615,472.974976 358.224701,492.615784 375.531647,501.629730 
	C381.989624,504.993225 389.031891,507.246246 395.840240,509.922913 
	C406.658691,514.176147 417.607941,518.116760 428.298248,522.667969 
	C434.308075,525.226624 438.695068,529.732849 440.370148,536.450500 
	C443.727325,549.914062 435.505341,563.117249 421.303070,566.880981 
	C396.855774,573.359924 370.930878,556.383789 366.450806,531.056519 
	C366.186279,529.560913 365.037659,528.221619 364.300446,526.809631 
	C363.621094,528.283203 362.322906,529.772217 362.359161,531.228027 
	C362.682312,544.207886 363.185425,557.184814 363.843597,570.152039 
	C363.892487,571.114807 365.442871,572.638245 366.481567,572.816772 
	C378.610687,574.901428 390.775543,576.778076 403.851135,578.789490 
M539.095581,521.500000 
	C538.483643,532.781067 538.348755,544.114990 537.104553,555.325928 
	C536.157288,563.860901 531.589294,570.565125 523.257751,574.119202 
	C522.277893,574.537170 521.521118,575.478027 520.660889,576.176514 
	C520.840271,576.559143 521.019653,576.941833 521.199036,577.324524 
	C530.856812,576.749512 540.514587,576.174438 550.433228,575.583862 
	C550.433228,525.987122 550.433228,476.606293 550.433228,426.669159 
	C540.523621,426.140533 530.792603,425.621429 521.061584,425.102325 
	C520.924194,425.611481 520.786804,426.120636 520.649414,426.629791 
	C521.627258,427.285217 522.530823,428.115173 523.594910,428.568207 
	C531.452393,431.913879 536.094910,437.861023 537.449951,446.182861 
	C538.302734,451.419800 538.977844,456.748230 539.027344,462.042206 
	C539.209412,481.526642 539.097168,501.013855 539.095581,521.500000 
M704.367065,538.477173 
	C704.148010,542.297119 704.042114,546.127625 703.688965,549.935120 
	C702.557190,562.135376 697.766785,571.689209 684.974426,575.336792 
	C684.796204,575.387573 684.749207,575.898621 684.254211,577.253357 
	C695.019592,576.684814 705.358215,576.138794 715.901245,575.582031 
	C715.901245,525.926880 715.901245,476.445007 715.901245,426.722443 
	C705.284058,426.184967 695.000366,425.664398 684.716675,425.143829 
	C684.597229,425.554626 684.477844,425.965393 684.358398,426.376190 
	C685.183838,426.946594 685.932251,427.756958 686.846558,428.050507 
	C696.684998,431.208618 701.664307,438.292114 703.110229,448.165131 
	C703.663513,451.943115 704.187988,455.768341 704.207153,459.574615 
	C704.338196,485.544189 704.331116,511.514465 704.367065,538.477173 
z"/>
<path fill="#6A3C83" opacity="1.000000" stroke="none" 
	d="
M1.000000,588.468628 
	C2.811929,587.861084 4.623848,587.600586 6.435790,587.600403 
	C282.073120,587.577942 557.710449,587.574280 833.347778,587.569824 
	C835.004333,587.569824 836.660889,587.569824 838.716309,587.569824 
	C838.716309,611.248413 838.716309,634.631714 838.716309,658.585754 
	C836.545654,658.585754 834.421814,658.585754 832.297974,658.585754 
	C557.660522,658.586487 283.023102,658.587158 8.385656,658.591553 
	C6.220196,658.591553 4.054737,658.643433 1.444638,658.835571 
	C1.000000,635.645752 1.000000,612.291565 1.000000,588.468628 
M545.104248,609.633057 
	C544.851685,604.301636 541.320312,601.848816 536.715637,601.390808 
	C531.507141,600.872681 526.207397,601.271301 520.756592,601.271301 
	C520.756592,613.502502 520.756592,625.519836 520.756592,637.829407 
	C526.417419,637.829407 531.735168,638.162476 536.993347,637.744873 
	C543.523621,637.226318 547.886780,632.117432 546.537354,626.305969 
	C545.824463,623.235779 543.430359,620.556091 542.045593,618.137207 
	C543.029419,615.670166 544.069641,613.061768 545.104248,609.633057 
M195.223602,623.507751 
	C195.223602,618.994690 195.223602,614.481567 195.223602,609.968506 
	C195.664246,609.913391 196.104889,609.858337 196.545547,609.803284 
	C200.851074,617.841614 205.441238,625.744812 209.348267,633.972412 
	C211.465454,638.430847 214.207199,638.572205 217.854416,637.340149 
	C217.854416,625.124878 217.854416,613.200989 217.854416,600.998047 
	C216.218658,601.104370 214.969391,601.185547 213.207352,601.300049 
	C213.207352,610.760376 213.207352,619.953003 213.207352,629.145569 
	C208.052979,621.515076 203.674973,613.748413 199.778610,605.747192 
	C197.776611,601.635986 195.293701,599.815186 190.576019,601.491272 
	C190.576019,613.460388 190.576019,625.518005 190.576019,637.983582 
	C192.337936,637.787109 193.710449,637.634094 195.223785,637.465332 
	C195.223785,632.816528 195.223785,628.657593 195.223602,623.507751 
M86.802589,617.501526 
	C86.802589,624.126892 86.802589,630.752258 86.802589,637.803894 
	C88.650558,637.707397 89.996666,637.637024 91.844208,637.540527 
	C91.844208,627.954468 91.844208,618.783447 91.844208,609.612427 
	C96.988701,617.457397 101.514420,625.350769 105.395706,633.549194 
	C107.508980,638.013000 110.336166,638.599304 114.766815,637.367554 
	C114.766815,626.027222 114.787552,614.894592 114.756073,603.762085 
	C114.744331,599.610352 112.207916,601.114197 109.663528,601.470398 
	C109.663528,610.974365 109.663528,620.182190 109.663528,629.390015 
	C104.387321,621.520996 99.801064,613.500183 95.813278,605.192139 
	C93.791679,600.980530 91.175804,600.163818 86.802322,601.575317 
	C86.802322,606.564880 86.802322,611.533936 86.802589,617.501526 
M650.748169,603.045837 
	C649.748108,603.921021 648.592773,604.671570 647.773132,605.691711 
	C642.495300,612.260437 641.932129,619.705444 644.386841,627.406128 
	C646.363037,633.605957 650.707764,637.776672 657.318420,638.361572 
	C661.095276,638.695862 663.749390,639.950745 666.329285,642.648010 
	C667.567993,643.943115 670.148254,643.955017 672.120911,644.548035 
	C672.277954,644.161560 672.434998,643.775085 672.592041,643.388550 
	C670.974731,641.438232 669.357361,639.487854 667.744080,637.542358 
	C677.440308,629.760132 680.104797,617.244019 674.366638,607.957886 
	C669.763794,600.509033 660.528931,598.393311 650.748169,603.045837 
M495.667572,614.498047 
	C495.667572,610.094055 495.667572,605.690125 495.667572,600.878357 
	C493.453217,601.085205 492.076080,601.213867 490.379547,601.372375 
	C490.379547,603.746826 490.386200,605.722412 490.378296,607.697998 
	C490.353607,613.847900 490.544495,620.009033 490.232880,626.144531 
	C489.923859,632.228638 486.817108,634.721680 480.773376,634.416687 
	C475.563080,634.153809 472.974640,631.871033 472.769501,626.220032 
	C472.469696,617.960754 472.692413,609.682495 472.692413,601.275574 
	C470.547272,601.275574 469.140869,601.275574 467.785583,601.275574 
	C467.785583,610.504395 467.274628,619.469177 467.950745,628.343506 
	C468.471558,635.179016 473.504608,638.559631 480.957367,638.698669 
	C488.840118,638.845764 493.809509,635.667053 494.998169,628.880920 
	C495.763611,624.510986 495.480438,619.957336 495.667572,614.498047 
M142.181442,620.657471 
	C140.074600,626.203674 137.967773,631.749939 135.820511,637.402527 
	C139.506516,638.579346 141.684067,637.796387 142.284256,634.090942 
	C142.988876,629.740601 145.421829,627.873169 149.888229,628.672668 
	C151.338120,628.932190 152.910538,628.923340 154.363831,628.672180 
	C159.337296,627.812683 162.168976,629.641174 163.065521,634.737061 
	C163.674362,638.197449 165.945847,638.606018 169.183823,637.159302 
	C164.832458,625.827942 160.622620,614.666992 156.183044,603.598145 
	C155.717636,602.437744 153.842880,601.065979 152.716446,601.144653 
	C151.321136,601.242065 149.349457,602.455017 148.802246,603.701965 
	C146.470215,609.015747 144.572144,614.519958 142.181442,620.657471 
M360.576355,637.323364 
	C365.199097,635.394287 366.990112,631.692566 366.706024,626.957642 
	C366.412109,622.059753 363.527283,619.059448 358.943085,617.694885 
	C356.562531,616.986267 354.110046,616.515015 351.683350,615.966309 
	C348.388153,615.221313 345.420502,614.077698 345.952728,609.871216 
	C346.451630,605.928040 349.420685,604.663452 352.798584,604.802307 
	C356.543915,604.956238 360.263550,605.735779 364.133881,606.261902 
	C365.082550,603.830383 364.593964,601.764404 361.468201,601.466248 
	C357.369904,601.075134 353.172607,600.552429 349.130768,601.033813 
	C344.056732,601.638062 341.112213,605.403320 340.837524,610.168213 
	C340.535065,615.415771 342.560425,618.347717 347.962189,620.108398 
	C350.319702,620.876892 352.781769,621.325989 355.198883,621.909790 
	C358.702423,622.755859 361.514954,624.252075 361.233093,628.520874 
	C360.930603,633.102295 357.552063,634.435181 353.923035,634.307922 
	C349.709595,634.160339 345.529175,633.070007 341.209778,632.368591 
	C339.915588,635.393005 341.397339,637.315186 344.631958,637.512024 
	C349.692596,637.820068 354.782990,637.638855 360.576355,637.323364 
M702.627930,633.687622 
	C707.535950,639.539978 713.859802,639.672913 720.401917,637.663513 
	C725.833069,635.995239 728.148193,631.584045 728.197815,624.024292 
	C728.243713,617.028870 728.209290,610.032715 728.163696,603.037292 
	C728.159729,602.424866 727.809509,601.814758 727.560608,601.011414 
	C726.168518,601.102417 724.905884,601.184937 723.095154,601.303284 
	C723.095154,609.669067 723.248718,617.795105 723.041992,625.911987 
	C722.900452,631.468811 720.275146,634.073486 715.252075,634.440491 
	C709.371033,634.870178 706.280579,632.762695 705.529724,626.941772 
	C704.958313,622.512085 705.176270,617.976013 705.116028,613.486267 
	C705.061157,609.393616 705.104431,605.299622 705.104431,601.484985 
	C700.971741,600.234619 699.841492,601.557495 699.993225,604.944702 
	C700.201721,609.599121 699.757812,614.291870 700.114502,618.928101 
	C700.478943,623.664551 701.473145,628.352478 702.627930,633.687622 
M804.561401,611.934692 
	C803.802429,607.121155 806.511658,604.950928 810.733093,604.906067 
	C814.647522,604.864441 818.571350,605.704346 822.724304,606.182922 
	C823.773071,603.780273 823.077209,601.696167 819.763489,601.373535 
	C815.818848,600.989502 811.770325,600.507141 807.882263,600.992493 
	C802.625854,601.648560 799.407532,605.623291 799.158020,610.460449 
	C798.914551,615.180237 801.459778,618.561768 806.777710,620.226501 
	C809.468506,621.068726 812.587341,621.034424 814.911438,622.411255 
	C817.007690,623.653259 819.280701,626.096008 819.690979,628.336060 
	C820.317444,631.756470 817.462402,633.929199 814.167908,634.062439 
	C810.751343,634.200684 807.288818,633.562317 803.869446,633.094971 
	C802.494141,632.907043 801.180176,632.270813 799.838257,631.838623 
	C799.460754,632.175537 799.083191,632.512390 798.705688,632.849304 
	C799.631897,634.241821 800.447693,636.737366 801.502747,636.842957 
	C807.185242,637.411804 813.010132,638.047791 818.620300,637.342712 
	C822.568787,636.846497 824.869263,633.272583 825.109619,628.900635 
	C825.471191,622.324280 822.356384,618.836182 815.009155,616.865295 
	C811.483154,615.919556 808.194214,614.090210 804.561401,611.934692 
M753.129028,604.752197 
	C753.129028,615.663391 753.129028,626.574585 753.129028,637.889160 
	C760.754822,637.889160 767.709778,637.998474 774.653015,637.763000 
	C775.617554,637.730347 776.524475,635.997437 777.458069,635.051575 
	C777.128723,634.611267 776.799316,634.171021 776.469971,633.730713 
	C770.561401,633.730713 764.652832,633.730713 758.642883,633.730713 
	C758.642883,629.028259 758.642883,624.847534 758.642883,620.288269 
	C763.534363,620.288269 768.010437,620.445435 772.461853,620.183472 
	C773.650452,620.113464 774.763672,618.761963 775.911499,617.998779 
	C774.783203,617.388000 773.676025,616.301453 772.522949,616.250305 
	C767.933899,616.046997 763.330566,616.166504 758.538147,616.166504 
	C758.538147,612.303223 758.538147,609.082458 758.538147,605.289978 
	C763.785767,605.289978 768.734985,605.415649 773.667969,605.189026 
	C774.714294,605.140930 775.701538,603.807007 776.716003,603.065552 
	C775.665344,602.365845 774.634216,601.097778 773.560852,601.061035 
	C767.747803,600.862061 761.918091,600.830078 756.110352,601.095947 
	C755.077087,601.143250 754.120361,602.862671 753.129028,604.752197 
M318.614960,635.433411 
	C317.247314,634.903625 315.895691,633.972107 314.509125,633.916809 
	C309.748016,633.726990 304.974701,633.843994 300.094116,633.843994 
	C300.094116,629.077271 300.094116,624.973450 300.094116,620.267273 
	C304.764313,620.267273 309.216339,620.388916 313.653595,620.186157 
	C314.840576,620.131958 315.982300,619.087219 317.144806,618.497253 
	C315.989777,617.724731 314.870514,616.357971 313.673279,616.285828 
	C309.244629,616.019043 304.790192,616.179688 300.114685,616.179688 
	C300.114685,612.370239 300.114685,609.122314 300.114685,605.274048 
	C305.254700,605.274048 310.207397,605.402283 315.142609,605.165222 
	C316.123138,605.118164 317.036438,603.671509 317.980743,602.870239 
	C317.043396,602.239258 316.118713,601.084656 315.166626,601.061646 
	C308.558563,600.901917 301.944794,600.977356 295.174011,600.977356 
	C295.174011,613.511414 295.174011,625.529480 295.174011,637.896423 
	C302.339142,637.896423 309.139008,637.955383 315.935242,637.825012 
	C316.828979,637.807983 317.704132,636.822388 318.614960,635.433411 
M426.892181,624.764038 
	C429.875488,624.167664 432.835510,623.376526 435.847046,623.016296 
	C441.696381,622.316772 445.187897,618.898621 445.681915,613.025085 
	C446.175446,607.157288 443.353058,602.735107 437.553070,601.753662 
	C432.580048,600.912048 427.441162,601.050598 422.130981,600.741455 
	C422.130981,613.518982 422.130981,625.528809 422.130981,637.918640 
	C423.860382,637.766968 425.231445,637.646790 426.859253,637.504028 
	C426.859253,633.306335 426.859253,629.507935 426.892181,624.764038 
M11.450468,601.985352 
	C11.450468,613.866516 11.450468,625.747742 11.450468,638.020752 
	C13.453050,637.799194 14.832165,637.646606 16.740936,637.435364 
	C16.740936,631.679443 16.740936,626.275391 16.740936,620.431213 
	C20.110981,620.431213 22.908010,620.439453 25.704977,620.429504 
	C31.119492,620.410156 31.119476,620.405884 30.136969,615.794678 
	C25.819605,615.794678 21.392859,615.794678 16.988895,615.794678 
	C16.988895,612.108154 16.988895,608.920593 16.988895,605.443420 
	C21.626585,605.443420 25.786350,605.599792 29.918110,605.329041 
	C30.901779,605.264587 31.791853,603.771973 32.724991,602.936279 
	C31.801523,602.279297 30.885044,601.067261 29.953453,601.055603 
	C23.980581,600.980347 18.004395,601.168518 11.450468,601.985352 
M253.785034,633.225403 
	C246.333755,630.178345 245.395737,617.009399 248.873276,611.035950 
	C250.129471,608.878296 252.242844,606.723083 254.481094,605.730835 
	C260.228607,603.182800 265.745483,605.156982 271.535370,607.654663 
	C270.960052,605.486023 270.149536,603.308167 268.608856,602.465820 
	C261.230011,598.431702 250.784576,600.419922 245.782410,606.463135 
	C240.344360,613.032898 240.337921,625.823914 245.769287,632.637329 
	C250.659363,638.771729 260.859192,640.568420 268.619904,636.755249 
	C271.270569,635.452942 272.346252,633.788269 270.697479,630.700867 
	C265.643005,634.394287 260.290619,635.364685 253.785034,633.225403 
M582.578979,633.858337 
	C580.476074,633.858337 578.373108,633.858337 575.830872,633.858337 
	C575.830872,622.631165 575.830872,612.036560 575.830872,601.328979 
	C574.005493,601.328979 572.631836,601.328979 571.173462,601.328979 
	C571.173462,613.568970 571.173462,625.481445 571.173462,637.877930 
	C578.047241,637.877930 584.668701,637.987366 591.278809,637.763611 
	C592.307800,637.728699 593.285400,636.173401 594.286804,635.321167 
	C594.000732,634.833557 593.714722,634.345886 593.428650,633.858276 
	C590.135254,633.858276 586.841858,633.858276 582.578979,633.858337 
M614.689087,607.586304 
	C614.689087,617.516479 614.689087,627.446716 614.689087,637.876526 
	C616.553101,637.767151 618.052429,637.679199 619.787659,637.577393 
	C619.787659,626.103455 619.744385,615.167786 619.809875,604.232788 
	C619.834473,600.126526 617.602539,600.724976 614.689331,601.515015 
	C614.689331,603.341003 614.689331,604.978088 614.689087,607.586304 
M56.035275,624.489319 
	C56.035275,628.778625 56.035275,633.067932 56.035275,637.575806 
	C57.916866,637.575806 59.294724,637.575806 60.860329,637.575806 
	C60.860329,625.360413 60.860329,613.446716 60.860329,601.304321 
	C59.236828,601.304321 57.866573,601.304321 56.035423,601.304321 
	C56.035423,608.906860 56.035423,616.200195 56.035275,624.489319 
z"/>
<path fill="#FDFBFD" opacity="1.000000" stroke="none" 
	d="
M1.000000,575.000000 
	C1.000000,526.312439 1.000000,477.624878 1.369810,428.473389 
	C11.412225,430.869263 16.786062,437.545715 18.196920,447.303833 
	C19.075460,453.380127 19.682716,459.550049 19.727434,465.682953 
	C19.899862,489.330200 19.905025,512.980347 19.722515,536.627502 
	C19.675196,542.758667 19.025434,548.928955 18.111597,554.999878 
	C16.591375,565.099182 11.015369,572.022583 1.000000,575.000000 
z"/>
<path fill="#6A3D83" opacity="1.000000" stroke="none" 
	d="
M1.000000,575.333313 
	C11.015369,572.022583 16.591375,565.099182 18.111597,554.999878 
	C19.025434,548.928955 19.675196,542.758667 19.722515,536.627502 
	C19.905025,512.980347 19.899862,489.330200 19.727434,465.682953 
	C19.682716,459.550049 19.075460,453.380127 18.196920,447.303833 
	C16.786062,437.545715 11.412225,430.869263 1.369810,428.004730 
	C1.000000,427.250000 1.000000,426.500000 1.000000,425.375000 
	C10.944432,425.620697 20.888865,426.241394 31.178129,426.883606 
	C31.178129,476.476013 31.178129,525.855713 31.178129,575.470154 
	C21.362820,576.069336 11.626771,576.663635 1.445361,577.129028 
	C1.000000,576.555542 1.000000,576.111084 1.000000,575.333313 
z"/>
<path fill="#683984" opacity="1.000000" stroke="none" 
	d="
M700.472168,125.538834 
	C728.638184,152.901184 752.112793,183.455719 771.216248,217.335175 
	C805.635620,278.376923 822.948486,344.054962 824.134155,414.053589 
	C824.153564,415.200623 824.136597,416.348236 824.136597,417.847900 
	C731.821045,417.847900 639.786255,417.847900 547.529419,417.847900 
	C545.105957,333.421387 512.416809,263.356964 446.724396,209.984344 
	C394.569183,167.610184 334.068787,148.365677 266.956390,151.337524 
	C121.287560,157.787979 10.397944,280.278564 11.442634,417.877319 
	C9.890494,417.999878 8.307541,418.124847 6.286174,418.284454 
	C6.286174,408.237335 5.637784,398.431824 6.388052,388.734528 
	C12.782555,306.084961 40.859329,231.517380 92.317368,166.492661 
	C160.029312,80.928780 248.069534,28.353519 356.296326,13.608587 
	C488.220215,-4.364869 603.220093,33.737061 700.472168,125.538834 
z"/>
<path fill="#88659E" opacity="1.000000" stroke="none" 
	d="
M299.263733,163.694702 
	C350.192749,168.757858 395.236664,187.277069 434.520477,219.193130 
	C483.187958,258.732880 513.658386,309.532654 525.437744,371.159302 
	C528.330200,386.291534 529.247009,401.801453 531.142212,417.727417 
	C472.305786,417.727417 414.777069,417.727417 357.375824,417.727417 
	C355.962067,406.969299 355.087250,396.181305 353.066833,385.612305 
	C340.495544,319.851715 286.383636,266.244843 220.719666,254.151657 
	C127.279564,236.942993 39.960419,297.742310 23.568857,391.556244 
	C22.311773,398.750916 22.146313,406.131378 21.249403,413.397827 
	C21.050159,415.012054 19.902151,416.509125 19.190981,418.060150 
	C18.524036,416.320129 17.232018,414.560760 17.285118,412.842987 
	C17.946117,391.460480 20.558969,370.304108 26.655014,349.764923 
	C49.053516,274.298492 95.729652,219.346375 166.881363,185.583176 
	C196.088104,171.723877 227.074326,164.070572 259.433563,162.936218 
	C272.533508,162.477005 285.681000,163.374756 299.263733,163.694702 
z"/>
<path fill="#9A7EAD" opacity="1.000000" stroke="none" 
	d="
M342.189575,378.875732 
	C344.288788,391.866669 346.292358,404.454346 348.400085,417.696533 
	C310.831512,417.696533 274.810608,417.696533 238.956345,417.696533 
	C233.561722,363.508240 206.207733,327.443085 152.128387,315.684540 
	C120.324745,308.769409 90.812714,317.243195 65.717072,338.206512 
	C41.026154,358.831787 28.759577,386.008057 26.357784,417.945648 
	C25.649864,382.947021 35.366417,351.034851 56.605885,323.483917 
	C96.605576,271.597992 149.994095,249.131714 214.408569,260.742706 
	C280.732727,272.697937 322.955109,313.816803 342.189575,378.875732 
z"/>
<path fill="#6B3E84" opacity="1.000000" stroke="none" 
	d="
M726.503906,516.999878 
	C726.504211,486.730560 726.504211,456.961243 726.504211,425.790649 
	C741.474426,425.790649 755.994812,424.662354 770.269165,426.055328 
	C791.637939,428.140594 804.981934,443.332550 807.133484,464.902100 
	C810.851685,502.178436 781.814697,519.148254 753.922241,515.380127 
	C748.845154,514.694275 743.830688,513.544373 738.033997,512.468933 
	C738.033997,515.432434 737.948425,518.491943 738.049622,521.545288 
	C738.385742,531.687073 738.206726,541.891052 739.320679,551.949951 
	C740.582703,563.345642 745.924072,572.171143 758.280579,574.767822 
	C758.969238,574.912476 759.586060,575.399109 760.027710,576.499756 
	C749.153198,576.499756 738.278748,576.499756 726.503662,576.499756 
	C726.503662,556.283630 726.503662,536.891785 726.503906,516.999878 
M766.931763,504.836731 
	C769.032349,504.343658 771.177551,503.990204 773.226685,503.335999 
	C795.520447,496.218506 802.574951,462.574890 785.588318,444.619324 
	C777.406067,435.970367 766.850403,434.448700 755.797241,434.848328 
	C742.536377,435.327789 739.747681,437.596039 739.062805,450.556152 
	C738.220886,466.487823 738.252808,482.469666 738.186340,498.430969 
	C738.180847,499.762634 740.159485,502.095886 741.453308,502.277832 
	C749.608521,503.424744 757.830872,504.094849 766.931763,504.836731 
z"/>
<path fill="#6C3F84" opacity="1.000000" stroke="none" 
	d="
M59.750275,566.135986 
	C64.914406,569.879211 69.871399,573.320435 75.265396,577.064941 
	C64.219093,576.563049 53.319431,576.067810 42.153122,575.560486 
	C42.153122,525.973083 42.153122,476.587219 42.153122,426.544739 
	C54.982792,426.043549 67.618011,424.691864 80.171234,425.235107 
	C107.774826,426.429626 124.802162,446.876495 122.571182,474.942413 
	C120.419075,502.016174 97.945374,519.287170 69.625793,515.497192 
	C64.240135,514.776489 58.924664,513.531250 52.504162,512.326782 
	C53.322750,526.501892 53.842590,540.440308 55.109730,554.310425 
	C55.469978,558.253662 58.005291,561.998230 59.750275,566.135986 
M80.038406,435.049744 
	C77.379211,434.951630 74.716072,434.707703 72.061485,434.779694 
	C57.949017,435.162292 54.923492,437.605408 54.215103,451.569458 
	C53.431648,467.013336 53.429092,482.501495 53.389877,497.971130 
	C53.386089,499.466125 55.225540,501.798035 56.713734,502.329803 
	C66.491249,505.823425 76.556862,506.263641 86.667419,503.874817 
	C93.181862,502.335663 98.435638,498.817413 102.726181,493.578735 
	C116.064034,477.293427 112.873711,438.580139 80.038406,435.049744 
z"/>
<path fill="#6E4286" opacity="1.000000" stroke="none" 
	d="
M599.984009,496.587952 
	C605.104675,496.095184 609.769897,495.839752 614.343750,495.053314 
	C622.042908,493.729492 627.246704,489.314026 629.752808,481.773407 
	C630.149963,480.578583 631.316589,479.639526 632.569214,478.006073 
	C633.179749,479.562042 633.493774,479.991241 633.496094,480.422150 
	C633.572998,494.733124 633.619690,509.044281 633.671570,523.355408 
	C633.675232,524.354980 633.909668,525.426453 633.621216,526.332153 
	C633.377563,527.097229 632.530518,527.670288 631.950562,528.328308 
	C631.386841,527.649902 630.784424,526.998535 630.281433,526.277771 
	C630.118042,526.043640 630.239380,525.624329 630.188660,525.296265 
	C628.338806,513.321899 623.257385,507.477417 611.137573,506.569946 
	C598.752441,505.642609 586.243774,506.364624 573.037170,506.364624 
	C573.037170,509.114288 572.995483,511.710083 573.044312,514.304199 
	C573.266907,526.122070 572.972412,537.982544 573.907959,549.744690 
	C574.826904,561.298218 579.297546,571.115295 591.674805,574.993652 
	C592.033752,575.106140 592.241638,575.700623 593.488831,577.357605 
	C582.220337,576.735535 572.069763,576.175232 561.636230,575.599243 
	C561.636230,526.018127 561.636230,476.614166 561.636230,426.120300 
	C586.694946,426.120300 611.562927,426.120300 636.991455,426.120300 
	C636.991455,437.542664 636.991455,449.591736 636.991455,461.640808 
	C636.503845,461.740143 636.016235,461.839447 635.528687,461.938782 
	C635.004028,460.569366 634.524048,459.180756 633.946594,457.833984 
	C631.992310,453.276459 630.545776,448.384918 627.898376,444.268555 
	C624.087097,438.342499 617.728760,436.360474 610.955627,436.328766 
	C600.308228,436.278900 589.653564,436.419006 579.017151,436.851410 
	C577.458069,436.914764 574.721069,438.966522 574.657532,440.207245 
	C573.706482,458.776489 573.113342,477.364075 572.412598,496.586578 
	C582.248474,496.586578 590.868042,496.586578 599.984009,496.587952 
z"/>
<path fill="#6C4085" opacity="1.000000" stroke="none" 
	d="
M404.242859,489.735229 
	C398.237305,487.155701 392.623627,484.648529 386.953857,482.275299 
	C366.725250,473.807953 369.458435,445.372406 381.930542,435.049438 
	C390.691864,427.797882 400.953827,424.940704 411.880554,423.998322 
	C427.627289,422.640198 443.133850,424.665497 458.418121,428.379730 
	C459.859711,428.730042 461.910797,430.659790 461.975983,431.942749 
	C462.516663,442.584106 462.685181,453.245361 462.879730,463.902130 
	C462.903290,465.191589 462.412567,466.490417 462.160248,467.784912 
	C461.633057,467.810272 461.105865,467.835663 460.578644,467.861053 
	C460.177460,466.444824 459.553589,465.050659 459.410919,463.608887 
	C458.424377,453.637634 453.301178,446.470947 444.527496,441.975861 
	C430.579254,434.829651 415.908447,433.509003 400.914581,437.803009 
	C397.031128,438.915131 393.229279,441.120911 390.021790,443.631561 
	C380.826752,450.828979 380.598297,462.870361 390.117401,469.598633 
	C396.405060,474.042938 403.783600,477.103088 410.960754,480.094299 
	C423.383209,485.271515 436.312958,489.297974 448.511292,494.930328 
	C465.318268,502.690582 473.816406,520.926147 470.166168,539.037781 
	C468.747833,546.075195 465.478943,552.066040 460.586731,556.172974 
	C461.202393,550.272644 462.535706,543.914856 462.393982,537.590271 
	C462.038452,521.729370 453.646820,510.301178 439.885468,503.603882 
	C428.576935,498.100342 416.400665,494.379822 404.242859,489.735229 
z"/>
<path fill="#6C4085" opacity="1.000000" stroke="none" 
	d="
M249.277008,423.972717 
	C266.665802,422.853851 283.255890,424.746429 299.985016,429.362488 
	C299.822968,442.188690 301.937012,454.923889 300.365662,467.636810 
	C299.739044,467.715851 299.112427,467.794891 298.485809,467.873932 
	C298.100739,466.484680 297.509155,465.116638 297.363922,463.702759 
	C296.387848,454.200928 291.796387,447.055878 283.413269,442.529907 
	C269.281616,434.900482 254.390350,433.598267 238.944183,437.621613 
	C238.141586,437.830627 237.330460,438.064758 236.581314,438.412292 
	C228.951324,441.951843 221.822723,446.156494 221.329376,455.745575 
	C220.832733,465.398682 227.104721,470.765137 234.996445,474.072418 
	C248.476120,479.721527 262.230133,484.712982 275.819489,490.105255 
	C280.140320,491.819702 284.469208,493.636230 288.512177,495.908264 
	C310.335999,508.172516 315.827698,538.458923 299.405701,555.376770 
	C298.959076,555.836914 298.438690,556.225525 296.914307,557.549194 
	C300.907471,548.279175 301.444305,539.758667 299.709534,531.285400 
	C297.021912,518.158325 289.079865,508.529114 277.078247,503.170563 
	C264.202576,497.421753 250.730301,493.016174 237.562256,487.911163 
	C233.382645,486.290833 229.375183,484.232269 225.235092,482.503143 
	C204.405029,473.803497 207.449158,445.164062 219.846710,435.002014 
	C228.345993,428.035339 238.282104,425.370300 249.277008,423.972717 
z"/>
<path fill="#6C4085" opacity="1.000000" stroke="none" 
	d="
M272.179535,573.261108 
	C259.099457,580.343567 245.571396,579.670227 231.903992,577.454285 
	C222.872116,575.989929 213.834061,574.543701 204.852951,572.808960 
	C203.586258,572.564270 201.725983,570.769409 201.665634,569.612549 
	C201.006409,556.975159 200.571899,544.323608 200.310989,531.671021 
	C200.277786,530.061768 201.583694,528.424927 202.269226,526.800842 
	C202.983307,528.259033 204.077957,529.648743 204.354691,531.185669 
	C208.909760,556.484802 234.985733,573.446411 259.337463,566.862854 
	C273.578827,563.012695 281.712158,549.824768 278.257507,536.343445 
	C276.592621,529.846497 272.391022,525.378296 266.539154,522.869019 
	C255.858765,518.289185 244.932388,514.284302 234.122360,510.004913 
	C227.168793,507.252197 219.944321,505.000183 213.357071,501.541382 
	C196.012650,492.434265 189.755859,473.042145 198.128098,455.927490 
	C198.394745,455.382385 198.807800,454.908875 199.775055,453.486938 
	C199.979309,456.172974 200.158875,457.871887 200.230179,459.575348 
	C200.883240,475.178284 208.074890,486.820526 222.340622,493.051331 
	C233.741486,498.030853 245.766220,501.566467 257.424805,505.978821 
	C262.390961,507.858337 267.191345,510.214020 271.961426,512.567444 
	C297.456635,525.146057 293.844177,553.492615 279.495056,567.470825 
	C277.364746,569.546082 274.841064,571.217590 272.179535,573.261108 
z"/>
<path fill="#6C4085" opacity="1.000000" stroke="none" 
	d="
M403.391052,578.749573 
	C390.775543,576.778076 378.610687,574.901428 366.481567,572.816772 
	C365.442871,572.638245 363.892487,571.114807 363.843597,570.152039 
	C363.185425,557.184814 362.682312,544.207886 362.359161,531.228027 
	C362.322906,529.772217 363.621094,528.283203 364.300446,526.809631 
	C365.037659,528.221619 366.186279,529.560913 366.450806,531.056519 
	C370.930878,556.383789 396.855774,573.359924 421.303070,566.880981 
	C435.505341,563.117249 443.727325,549.914062 440.370148,536.450500 
	C438.695068,529.732849 434.308075,525.226624 428.298248,522.667969 
	C417.607941,518.116760 406.658691,514.176147 395.840240,509.922913 
	C389.031891,507.246246 381.989624,504.993225 375.531647,501.629730 
	C358.224701,492.615784 351.811615,472.974976 360.183258,456.055695 
	C360.455750,455.504974 360.851318,455.015106 361.188538,454.498444 
	C362.088409,459.663025 362.558807,464.804291 363.923279,469.696228 
	C366.961792,480.590118 373.828735,488.686218 384.235809,492.978119 
	C395.749420,497.726318 407.714325,501.370087 419.307312,505.939819 
	C425.779266,508.490906 432.219360,511.426178 438.104401,515.100342 
	C450.792664,523.022034 455.435120,536.150330 451.433167,550.652710 
	C446.896118,567.094238 433.206543,577.677368 414.839447,578.795044 
	C411.190308,579.017151 407.514587,578.802673 403.391052,578.749573 
z"/>
<path fill="#704488" opacity="1.000000" stroke="none" 
	d="
M539.095581,521.000000 
	C539.097168,501.013855 539.209412,481.526642 539.027344,462.042206 
	C538.977844,456.748230 538.302734,451.419800 537.449951,446.182861 
	C536.094910,437.861023 531.452393,431.913879 523.594910,428.568207 
	C522.530823,428.115173 521.627258,427.285217 520.649414,426.629791 
	C520.786804,426.120636 520.924194,425.611481 521.061584,425.102325 
	C530.792603,425.621429 540.523621,426.140533 550.433228,426.669159 
	C550.433228,476.606293 550.433228,525.987122 550.433228,575.583862 
	C540.514587,576.174438 530.856812,576.749512 521.199036,577.324524 
	C521.019653,576.941833 520.840271,576.559143 520.660889,576.176514 
	C521.521118,575.478027 522.277893,574.537170 523.257751,574.119202 
	C531.589294,570.565125 536.157288,563.860901 537.104553,555.325928 
	C538.348755,544.114990 538.483643,532.781067 539.095581,521.000000 
z"/>
<path fill="#6C4084" opacity="1.000000" stroke="none" 
	d="
M704.367859,537.980835 
	C704.331116,511.514465 704.338196,485.544189 704.207153,459.574615 
	C704.187988,455.768341 703.663513,451.943115 703.110229,448.165131 
	C701.664307,438.292114 696.684998,431.208618 686.846558,428.050507 
	C685.932251,427.756958 685.183838,426.946594 684.358398,426.376190 
	C684.477844,425.965393 684.597229,425.554626 684.716675,425.143829 
	C695.000366,425.664398 705.284058,426.184967 715.901245,426.722443 
	C715.901245,476.445007 715.901245,525.926880 715.901245,575.582031 
	C705.358215,576.138794 695.019592,576.684814 684.254211,577.253357 
	C684.749207,575.898621 684.796204,575.387573 684.974426,575.336792 
	C697.766785,571.689209 702.557190,562.135376 703.688965,549.935120 
	C704.042114,546.127625 704.148010,542.297119 704.367859,537.980835 
z"/>
<path fill="#6E4286" opacity="1.000000" stroke="none" 
	d="
M803.942017,433.059570 
	C817.849182,437.286469 826.306580,446.804901 829.718872,460.642273 
	C834.421265,479.711578 826.047363,497.708557 808.680481,506.814545 
	C807.431946,507.469177 806.013184,507.799072 803.275940,508.781708 
	C813.698792,497.207825 817.899536,484.779144 817.698059,470.876373 
	C817.496216,456.945160 813.044067,444.471863 804.051270,433.350403 
	C803.979065,433.025055 803.942017,433.059570 803.942017,433.059570 
z"/>
<path fill="#6E4286" opacity="1.000000" stroke="none" 
	d="
M119.965187,507.969086 
	C125.682251,499.931061 130.701614,491.604431 132.198639,481.573059 
	C134.790558,464.205078 130.876038,448.534882 120.145226,434.531525 
	C128.240768,433.538116 141.117645,446.476624 144.581955,458.878174 
	C150.399109,479.702515 141.107849,499.083069 120.503250,508.148621 
	C120.081207,508.074036 119.965187,507.969086 119.965187,507.969086 
z"/>
<path fill="#6E4286" opacity="1.000000" stroke="none" 
	d="
M120.140343,508.125244 
	C120.008896,508.376434 119.818314,508.576447 119.627731,508.776459 
	C119.582542,508.541321 119.537338,508.306213 119.728661,508.020081 
	C119.965187,507.969086 120.081207,508.074036 120.140343,508.125244 
z"/>
<path fill="#6E4286" opacity="1.000000" stroke="none" 
	d="
M803.999817,433.010559 
	C803.893799,432.923798 803.767090,432.851501 803.640320,432.779236 
	C803.762573,432.759277 803.884766,432.739288 803.974487,432.889404 
	C803.942017,433.059570 803.979065,433.025055 803.999817,433.010559 
z"/>
<path fill="#F4ECF6" opacity="1.000000" stroke="none" 
	d="
M545.107056,610.043213 
	C544.069641,613.061768 543.029419,615.670166 542.045593,618.137207 
	C543.430359,620.556091 545.824463,623.235779 546.537354,626.305969 
	C547.886780,632.117432 543.523621,637.226318 536.993347,637.744873 
	C531.735168,638.162476 526.417419,637.829407 520.756592,637.829407 
	C520.756592,625.519836 520.756592,613.502502 520.756592,601.271301 
	C526.207397,601.271301 531.507141,600.872681 536.715637,601.390808 
	C541.320312,601.848816 544.851685,604.301636 545.107056,610.043213 
M525.645935,622.755859 
	C525.645935,626.339905 525.645935,629.923950 525.645935,633.789734 
	C529.385925,633.789734 532.378479,634.032288 535.314636,633.729065 
	C539.096375,633.338623 541.698181,631.199036 541.129639,627.140503 
	C540.842346,625.090149 539.471313,621.707458 538.242981,621.544495 
	C534.148315,621.001160 529.896667,621.641663 525.645935,622.755859 
M525.629150,612.478333 
	C525.555847,619.084839 530.544006,615.655640 533.259583,616.036011 
	C536.547180,616.496521 540.084045,615.433960 539.820923,611.244141 
	C539.701294,609.339600 537.775513,606.501526 536.079041,605.970093 
	C532.959290,604.992798 529.403137,605.408752 525.628967,605.224426 
	C525.628967,607.904907 525.628967,609.713867 525.629150,612.478333 
z"/>
<path fill="#F2EAF5" opacity="1.000000" stroke="none" 
	d="
M195.223694,624.003174 
	C195.223785,628.657593 195.223785,632.816528 195.223785,637.465332 
	C193.710449,637.634094 192.337936,637.787109 190.576019,637.983582 
	C190.576019,625.518005 190.576019,613.460388 190.576019,601.491272 
	C195.293701,599.815186 197.776611,601.635986 199.778610,605.747192 
	C203.674973,613.748413 208.052979,621.515076 213.207352,629.145569 
	C213.207352,619.953003 213.207352,610.760376 213.207352,601.300049 
	C214.969391,601.185547 216.218658,601.104370 217.854416,600.998047 
	C217.854416,613.200989 217.854416,625.124878 217.854416,637.340149 
	C214.207199,638.572205 211.465454,638.430847 209.348267,633.972412 
	C205.441238,625.744812 200.851074,617.841614 196.545547,609.803284 
	C196.104889,609.858337 195.664246,609.913391 195.223602,609.968506 
	C195.223602,614.481567 195.223602,618.994690 195.223694,624.003174 
z"/>
<path fill="#F4ECF6" opacity="1.000000" stroke="none" 
	d="
M86.802460,617.002258 
	C86.802322,611.533936 86.802322,606.564880 86.802322,601.575317 
	C91.175804,600.163818 93.791679,600.980530 95.813278,605.192139 
	C99.801064,613.500183 104.387321,621.520996 109.663528,629.390015 
	C109.663528,620.182190 109.663528,610.974365 109.663528,601.470398 
	C112.207916,601.114197 114.744331,599.610352 114.756073,603.762085 
	C114.787552,614.894592 114.766815,626.027222 114.766815,637.367554 
	C110.336166,638.599304 107.508980,638.013000 105.395706,633.549194 
	C101.514420,625.350769 96.988701,617.457397 91.844208,609.612427 
	C91.844208,618.783447 91.844208,627.954468 91.844208,637.540527 
	C89.996666,637.637024 88.650558,637.707397 86.802589,637.803894 
	C86.802589,630.752258 86.802589,624.126892 86.802460,617.002258 
z"/>
<path fill="#F5EEF8" opacity="1.000000" stroke="none" 
	d="
M651.083008,602.873047 
	C660.528931,598.393311 669.763794,600.509033 674.366638,607.957886 
	C680.104797,617.244019 677.440308,629.760132 667.744080,637.542358 
	C669.357361,639.487854 670.974731,641.438232 672.592041,643.388550 
	C672.434998,643.775085 672.277954,644.161560 672.120911,644.548035 
	C670.148254,643.955017 667.567993,643.943115 666.329285,642.648010 
	C663.749390,639.950745 661.095276,638.695862 657.318420,638.361572 
	C650.707764,637.776672 646.363037,633.605957 644.386841,627.406128 
	C641.932129,619.705444 642.495300,612.260437 647.773132,605.691711 
	C648.592773,604.671570 649.748108,603.921021 651.083008,602.873047 
M670.497375,627.645935 
	C672.506409,622.107361 672.720703,616.567688 670.258240,611.121948 
	C668.277954,606.742676 664.853149,604.613037 659.961426,604.656677 
	C654.991638,604.701111 651.377319,607.102112 650.080627,611.581360 
	C648.959473,615.453796 648.693909,619.765381 648.996277,623.812134 
	C649.417725,629.452393 652.982239,633.206726 657.597107,634.179382 
	C663.063904,635.331665 666.454895,633.749084 670.497375,627.645935 
z"/>
<path fill="#F2EAF5" opacity="1.000000" stroke="none" 
	d="
M495.667419,614.992065 
	C495.480438,619.957336 495.763611,624.510986 494.998169,628.880920 
	C493.809509,635.667053 488.840118,638.845764 480.957367,638.698669 
	C473.504608,638.559631 468.471558,635.179016 467.950745,628.343506 
	C467.274628,619.469177 467.785583,610.504395 467.785583,601.275574 
	C469.140869,601.275574 470.547272,601.275574 472.692413,601.275574 
	C472.692413,609.682495 472.469696,617.960754 472.769501,626.220032 
	C472.974640,631.871033 475.563080,634.153809 480.773376,634.416687 
	C486.817108,634.721680 489.923859,632.228638 490.232880,626.144531 
	C490.544495,620.009033 490.353607,613.847900 490.378296,607.697998 
	C490.386200,605.722412 490.379547,603.746826 490.379547,601.372375 
	C492.076080,601.213867 493.453217,601.085205 495.667572,600.878357 
	C495.667572,605.690125 495.667572,610.094055 495.667419,614.992065 
z"/>
<path fill="#F3EBF6" opacity="1.000000" stroke="none" 
	d="
M142.348572,620.306091 
	C144.572144,614.519958 146.470215,609.015747 148.802246,603.701965 
	C149.349457,602.455017 151.321136,601.242065 152.716446,601.144653 
	C153.842880,601.065979 155.717636,602.437744 156.183044,603.598145 
	C160.622620,614.666992 164.832458,625.827942 169.183823,637.159302 
	C165.945847,638.606018 163.674362,638.197449 163.065521,634.737061 
	C162.168976,629.641174 159.337296,627.812683 154.363831,628.672180 
	C152.910538,628.923340 151.338120,628.932190 149.888229,628.672668 
	C145.421829,627.873169 142.988876,629.740601 142.284256,634.090942 
	C141.684067,637.796387 139.506516,638.579346 135.820511,637.402527 
	C137.967773,631.749939 140.074600,626.203674 142.348572,620.306091 
M150.877853,610.572571 
	C149.288467,614.899292 147.699081,619.226013 145.998199,623.856201 
	C150.513809,623.856201 154.532852,623.856201 159.072128,623.856201 
	C156.896866,617.998840 154.899078,612.619324 152.662659,606.597229 
	C151.914597,608.147156 151.500992,609.004089 150.877853,610.572571 
z"/>
<path fill="#F3EBF6" opacity="1.000000" stroke="none" 
	d="
M360.218567,637.494141 
	C354.782990,637.638855 349.692596,637.820068 344.631958,637.512024 
	C341.397339,637.315186 339.915588,635.393005 341.209778,632.368591 
	C345.529175,633.070007 349.709595,634.160339 353.923035,634.307922 
	C357.552063,634.435181 360.930603,633.102295 361.233093,628.520874 
	C361.514954,624.252075 358.702423,622.755859 355.198883,621.909790 
	C352.781769,621.325989 350.319702,620.876892 347.962189,620.108398 
	C342.560425,618.347717 340.535065,615.415771 340.837524,610.168213 
	C341.112213,605.403320 344.056732,601.638062 349.130768,601.033813 
	C353.172607,600.552429 357.369904,601.075134 361.468201,601.466248 
	C364.593964,601.764404 365.082550,603.830383 364.133881,606.261902 
	C360.263550,605.735779 356.543915,604.956238 352.798584,604.802307 
	C349.420685,604.663452 346.451630,605.928040 345.952728,609.871216 
	C345.420502,614.077698 348.388153,615.221313 351.683350,615.966309 
	C354.110046,616.515015 356.562531,616.986267 358.943085,617.694885 
	C363.527283,619.059448 366.412109,622.059753 366.706024,626.957642 
	C366.990112,631.692566 365.199097,635.394287 360.218567,637.494141 
z"/>
<path fill="#F5EEF8" opacity="1.000000" stroke="none" 
	d="
M702.409790,633.374634 
	C701.473145,628.352478 700.478943,623.664551 700.114502,618.928101 
	C699.757812,614.291870 700.201721,609.599121 699.993225,604.944702 
	C699.841492,601.557495 700.971741,600.234619 705.104431,601.484985 
	C705.104431,605.299622 705.061157,609.393616 705.116028,613.486267 
	C705.176270,617.976013 704.958313,622.512085 705.529724,626.941772 
	C706.280579,632.762695 709.371033,634.870178 715.252075,634.440491 
	C720.275146,634.073486 722.900452,631.468811 723.041992,625.911987 
	C723.248718,617.795105 723.095154,609.669067 723.095154,601.303284 
	C724.905884,601.184937 726.168518,601.102417 727.560608,601.011414 
	C727.809509,601.814758 728.159729,602.424866 728.163696,603.037292 
	C728.209290,610.032715 728.243713,617.028870 728.197815,624.024292 
	C728.148193,631.584045 725.833069,635.995239 720.401917,637.663513 
	C713.859802,639.672913 707.535950,639.539978 702.409790,633.374634 
z"/>
<path fill="#F4ECF6" opacity="1.000000" stroke="none" 
	d="
M804.679688,612.297852 
	C808.194214,614.090210 811.483154,615.919556 815.009155,616.865295 
	C822.356384,618.836182 825.471191,622.324280 825.109619,628.900635 
	C824.869263,633.272583 822.568787,636.846497 818.620300,637.342712 
	C813.010132,638.047791 807.185242,637.411804 801.502747,636.842957 
	C800.447693,636.737366 799.631897,634.241821 798.705688,632.849304 
	C799.083191,632.512390 799.460754,632.175537 799.838257,631.838623 
	C801.180176,632.270813 802.494141,632.907043 803.869446,633.094971 
	C807.288818,633.562317 810.751343,634.200684 814.167908,634.062439 
	C817.462402,633.929199 820.317444,631.756470 819.690979,628.336060 
	C819.280701,626.096008 817.007690,623.653259 814.911438,622.411255 
	C812.587341,621.034424 809.468506,621.068726 806.777710,620.226501 
	C801.459778,618.561768 798.914551,615.180237 799.158020,610.460449 
	C799.407532,605.623291 802.625854,601.648560 807.882263,600.992493 
	C811.770325,600.507141 815.818848,600.989502 819.763489,601.373535 
	C823.077209,601.696167 823.773071,603.780273 822.724304,606.182922 
	C818.571350,605.704346 814.647522,604.864441 810.733093,604.906067 
	C806.511658,604.950928 803.802429,607.121155 804.679688,612.297852 
z"/>
<path fill="#F3EBF6" opacity="1.000000" stroke="none" 
	d="
M753.128662,604.281067 
	C754.120361,602.862671 755.077087,601.143250 756.110352,601.095947 
	C761.918091,600.830078 767.747803,600.862061 773.560852,601.061035 
	C774.634216,601.097778 775.665344,602.365845 776.716003,603.065552 
	C775.701538,603.807007 774.714294,605.140930 773.667969,605.189026 
	C768.734985,605.415649 763.785767,605.289978 758.538147,605.289978 
	C758.538147,609.082458 758.538147,612.303223 758.538147,616.166504 
	C763.330566,616.166504 767.933899,616.046997 772.522949,616.250305 
	C773.676025,616.301453 774.783203,617.388000 775.911499,617.998779 
	C774.763672,618.761963 773.650452,620.113464 772.461853,620.183472 
	C768.010437,620.445435 763.534363,620.288269 758.642883,620.288269 
	C758.642883,624.847534 758.642883,629.028259 758.642883,633.730713 
	C764.652832,633.730713 770.561401,633.730713 776.469971,633.730713 
	C776.799316,634.171021 777.128723,634.611267 777.458069,635.051575 
	C776.524475,635.997437 775.617554,637.730347 774.653015,637.763000 
	C767.709778,637.998474 760.754822,637.889160 753.129028,637.889160 
	C753.129028,626.574585 753.129028,615.663391 753.128662,604.281067 
z"/>
<path fill="#F5EEF8" opacity="1.000000" stroke="none" 
	d="
M318.601440,635.859375 
	C317.704132,636.822388 316.828979,637.807983 315.935242,637.825012 
	C309.139008,637.955383 302.339142,637.896423 295.174011,637.896423 
	C295.174011,625.529480 295.174011,613.511414 295.174011,600.977356 
	C301.944794,600.977356 308.558563,600.901917 315.166626,601.061646 
	C316.118713,601.084656 317.043396,602.239258 317.980774,602.870239 
	C317.036438,603.671509 316.123138,605.118164 315.142609,605.165222 
	C310.207397,605.402283 305.254700,605.274048 300.114685,605.274048 
	C300.114685,609.122314 300.114685,612.370239 300.114685,616.179688 
	C304.790192,616.179688 309.244629,616.019043 313.673279,616.285828 
	C314.870514,616.357971 315.989777,617.724731 317.144806,618.497253 
	C315.982300,619.087219 314.840576,620.131958 313.653595,620.186157 
	C309.216339,620.388916 304.764313,620.267273 300.094116,620.267273 
	C300.094116,624.973450 300.094116,629.077271 300.094116,633.843994 
	C304.974701,633.843994 309.748016,633.726990 314.509125,633.916809 
	C315.895691,633.972107 317.247314,634.903625 318.601440,635.859375 
z"/>
<path fill="#F5EEF8" opacity="1.000000" stroke="none" 
	d="
M426.875732,625.236755 
	C426.859253,629.507935 426.859253,633.306335 426.859253,637.504028 
	C425.231445,637.646790 423.860382,637.766968 422.130981,637.918640 
	C422.130981,625.528809 422.130981,613.518982 422.130981,600.741455 
	C427.441162,601.050598 432.580048,600.912048 437.553070,601.753662 
	C443.353058,602.735107 446.175446,607.157288 445.681915,613.025085 
	C445.187897,618.898621 441.696381,622.316772 435.847046,623.016296 
	C432.835510,623.376526 429.875488,624.167664 426.875732,625.236755 
M438.467712,607.098206 
	C434.769135,606.305908 431.070557,605.513672 426.841431,604.607788 
	C426.841431,608.153564 426.841431,610.304321 426.841431,612.455078 
	C426.841431,614.542053 426.841431,616.628967 426.841431,618.637146 
	C438.890533,619.706970 442.324066,616.396423 438.467712,607.098206 
z"/>
<path fill="#F2EAF5" opacity="1.000000" stroke="none" 
	d="
M11.739883,601.627747 
	C18.004395,601.168518 23.980581,600.980347 29.953453,601.055603 
	C30.885044,601.067261 31.801523,602.279297 32.724983,602.936279 
	C31.791853,603.771973 30.901779,605.264587 29.918110,605.329041 
	C25.786350,605.599792 21.626585,605.443420 16.988895,605.443420 
	C16.988895,608.920593 16.988895,612.108154 16.988895,615.794678 
	C21.392859,615.794678 25.819605,615.794678 30.136969,615.794678 
	C31.119476,620.405884 31.119492,620.410156 25.704977,620.429504 
	C22.908010,620.439453 20.110981,620.431213 16.740936,620.431213 
	C16.740936,626.275391 16.740936,631.679443 16.740936,637.435364 
	C14.832165,637.646606 13.453050,637.799194 11.450468,638.020752 
	C11.450468,625.747742 11.450468,613.866516 11.739883,601.627747 
z"/>
<path fill="#F5EEF8" opacity="1.000000" stroke="none" 
	d="
M254.144775,633.422119 
	C260.290619,635.364685 265.643005,634.394287 270.697479,630.700867 
	C272.346252,633.788269 271.270569,635.452942 268.619904,636.755249 
	C260.859192,640.568420 250.659363,638.771729 245.769287,632.637329 
	C240.337921,625.823914 240.344360,613.032898 245.782410,606.463135 
	C250.784576,600.419922 261.230011,598.431702 268.608856,602.465820 
	C270.149536,603.308167 270.960052,605.486023 271.535370,607.654663 
	C265.745483,605.156982 260.228607,603.182800 254.481094,605.730835 
	C252.242844,606.723083 250.129471,608.878296 248.873276,611.035950 
	C245.395737,617.009399 246.333755,630.178345 254.144775,633.422119 
z"/>
<path fill="#FAF2FB" opacity="1.000000" stroke="none" 
	d="
M583.063721,633.858276 
	C586.841858,633.858276 590.135254,633.858276 593.428650,633.858276 
	C593.714722,634.345886 594.000732,634.833557 594.286804,635.321167 
	C593.285400,636.173401 592.307800,637.728699 591.278809,637.763611 
	C584.668701,637.987366 578.047241,637.877930 571.173462,637.877930 
	C571.173462,625.481445 571.173462,613.568970 571.173462,601.328979 
	C572.631836,601.328979 574.005493,601.328979 575.830872,601.328979 
	C575.830872,612.036560 575.830872,622.631165 575.830872,633.858337 
	C578.373108,633.858337 580.476074,633.858337 583.063721,633.858276 
z"/>
<path fill="#F3EBF6" opacity="1.000000" stroke="none" 
	d="
M614.689209,607.100708 
	C614.689331,604.978088 614.689331,603.341003 614.689331,601.515015 
	C617.602539,600.724976 619.834473,600.126526 619.809875,604.232788 
	C619.744385,615.167786 619.787659,626.103455 619.787659,637.577393 
	C618.052429,637.679199 616.553101,637.767151 614.689087,637.876526 
	C614.689087,627.446716 614.689087,617.516479 614.689209,607.100708 
z"/>
<path fill="#F5EEF8" opacity="1.000000" stroke="none" 
	d="
M56.035347,623.991394 
	C56.035423,616.200195 56.035423,608.906860 56.035423,601.304321 
	C57.866573,601.304321 59.236828,601.304321 60.860329,601.304321 
	C60.860329,613.446716 60.860329,625.360413 60.860329,637.575806 
	C59.294724,637.575806 57.916866,637.575806 56.035275,637.575806 
	C56.035275,633.067932 56.035275,628.778625 56.035347,623.991394 
z"/>
<path fill="#FDFCFE" opacity="1.000000" stroke="none" 
	d="
M766.481384,504.879608 
	C757.830872,504.094849 749.608521,503.424744 741.453308,502.277832 
	C740.159485,502.095886 738.180847,499.762634 738.186340,498.430969 
	C738.252808,482.469666 738.220886,466.487823 739.062805,450.556152 
	C739.747681,437.596039 742.536377,435.327789 755.797241,434.848328 
	C766.850403,434.448700 777.406067,435.970367 785.588318,444.619324 
	C802.574951,462.574890 795.520447,496.218506 773.226685,503.335999 
	C771.177551,503.990204 769.032349,504.343658 766.481384,504.879608 
z"/>
<path fill="#FDFCFD" opacity="1.000000" stroke="none" 
	d="
M80.483757,435.111450 
	C112.873711,438.580139 116.064034,477.293427 102.726181,493.578735 
	C98.435638,498.817413 93.181862,502.335663 86.667419,503.874817 
	C76.556862,506.263641 66.491249,505.823425 56.713734,502.329803 
	C55.225540,501.798035 53.386089,499.466125 53.389877,497.971130 
	C53.429092,482.501495 53.431648,467.013336 54.215103,451.569458 
	C54.923492,437.605408 57.949017,435.162292 72.061485,434.779694 
	C74.716072,434.707703 77.379211,434.951630 80.483757,435.111450 
z"/>
<path fill="#6E4286" opacity="1.000000" stroke="none" 
	d="
M525.675537,622.292175 
	C529.896667,621.641663 534.148315,621.001160 538.242981,621.544495 
	C539.471313,621.707458 540.842346,625.090149 541.129639,627.140503 
	C541.698181,631.199036 539.096375,633.338623 535.314636,633.729065 
	C532.378479,634.032288 529.385925,633.789734 525.645935,633.789734 
	C525.645935,629.923950 525.645935,626.339905 525.675537,622.292175 
z"/>
<path fill="#6E4286" opacity="1.000000" stroke="none" 
	d="
M525.629028,612.000610 
	C525.628967,609.713867 525.628967,607.904907 525.628967,605.224426 
	C529.403137,605.408752 532.959290,604.992798 536.079041,605.970093 
	C537.775513,606.501526 539.701294,609.339600 539.820923,611.244141 
	C540.084045,615.433960 536.547180,616.496521 533.259583,616.036011 
	C530.544006,615.655640 525.555847,619.084839 525.629028,612.000610 
z"/>
<path fill="#6B3E84" opacity="1.000000" stroke="none" 
	d="
M670.310364,627.989624 
	C666.454895,633.749084 663.063904,635.331665 657.597107,634.179382 
	C652.982239,633.206726 649.417725,629.452393 648.996277,623.812134 
	C648.693909,619.765381 648.959473,615.453796 650.080627,611.581360 
	C651.377319,607.102112 654.991638,604.701111 659.961426,604.656677 
	C664.853149,604.613037 668.277954,606.742676 670.258240,611.121948 
	C672.720703,616.567688 672.506409,622.107361 670.310364,627.989624 
z"/>
<path fill="#704488" opacity="1.000000" stroke="none" 
	d="
M150.982620,610.216797 
	C151.500992,609.004089 151.914597,608.147156 152.662659,606.597229 
	C154.899078,612.619324 156.896866,617.998840 159.072128,623.856201 
	C154.532852,623.856201 150.513809,623.856201 145.998199,623.856201 
	C147.699081,619.226013 149.288467,614.899292 150.982620,610.216797 
z"/>
<path fill="#6E4286" opacity="1.000000" stroke="none" 
	d="
M438.733032,607.409424 
	C442.324066,616.396423 438.890533,619.706970 426.841431,618.637146 
	C426.841431,616.628967 426.841431,614.542053 426.841431,612.455078 
	C426.841431,610.304321 426.841431,608.153564 426.841431,604.607788 
	C431.070557,605.513672 434.769135,606.305908 438.733032,607.409424 
z"/>
</svg>